<svg width="32" height="32" viewBox="0 0 32 32" fill="none" xmlns="http://www.w3.org/2000/svg">
<path d="M0 4C0 1.79086 1.79086 0 4 0H28C30.2091 0 32 1.79086 32 4V28C32 30.2091 30.2091 32 28 32H4C1.79086 32 0 30.2091 0 28V4Z" fill="#DEEAFA"/>
<path d="M16.6825 8.42428C16.5543 8.16448 16.2897 8 16 8C15.7103 8 15.4457 8.16448 15.3175 8.42428L13.2576 12.598L8.65171 13.2672C8.365 13.3089 8.1268 13.5097 8.03727 13.7853C7.94775 14.0608 8.02241 14.3633 8.22988 14.5655L11.5628 17.8143L10.776 22.4016C10.727 22.6871 10.8444 22.9757 11.0788 23.146C11.3132 23.3163 11.6239 23.3388 11.8803 23.2039L16 21.0381L20.1197 23.2039C20.3761 23.3388 20.6868 23.3163 20.9212 23.146C21.1556 22.9757 21.273 22.6871 21.224 22.4016L20.4372 17.8143L23.7701 14.5655C23.9776 14.3633 24.0523 14.0608 23.9627 13.7853C23.8732 13.5097 23.635 13.3089 23.3483 13.2672L18.7424 12.598L16.6825 8.42428Z" fill="#317AE2"/>
</svg>
